<?xml version="1.0" encoding="UTF-8" standalone="no"?>
<!-- Created with Inkscape (http://www.inkscape.org/) -->

<svg
   width="26.981087mm"
   height="26.981087mm"
   viewBox="0 0 26.981087 26.981087"
   version="1.1"
   id="svg1"
   inkscape:version="1.4.1 (1:1.4.1+202503302257+93de688d07)"
   sodipodi:docname="atlas_blue.svg"
   inkscape:export-filename="atlas_grey.png"
   inkscape:export-xdpi="300"
   inkscape:export-ydpi="300"
   xmlns:inkscape="http://www.inkscape.org/namespaces/inkscape"
   xmlns:sodipodi="http://sodipodi.sourceforge.net/DTD/sodipodi-0.dtd"
   xmlns="http://www.w3.org/2000/svg"
   xmlns:svg="http://www.w3.org/2000/svg">
  <sodipodi:namedview
     id="namedview1"
     pagecolor="#ffffff"
     bordercolor="#999999"
     borderopacity="1"
     inkscape:showpageshadow="0"
     inkscape:pageopacity="0"
     inkscape:pagecheckerboard="0"
     inkscape:deskcolor="#d1d1d1"
     inkscape:document-units="mm"
     showgrid="true"
     inkscape:zoom="2.0240191"
     inkscape:cx="70.651507"
     inkscape:cy="58.546879"
     inkscape:window-width="1920"
     inkscape:window-height="1045"
     inkscape:window-x="0"
     inkscape:window-y="35"
     inkscape:window-maximized="0"
     inkscape:current-layer="layer1">
    <inkscape:grid
       id="grid3"
       units="mm"
       originx="-53.475765"
       originy="-42.80634"
       spacingx="0.26458333"
       spacingy="0.26458334"
       empcolor="#3f3fff"
       empopacity="0.25098039"
       color="#3f3fff"
       opacity="0.1254902"
       empspacing="5"
       enabled="true"
       visible="true" />
  </sodipodi:namedview>
  <defs
     id="defs1" />
  <g
     inkscape:label="Layer 1"
     inkscape:groupmode="layer"
     id="layer1"
     transform="translate(-53.475765,-42.806339)">
    <circle
       style="fill:none;stroke:#0e97d3;stroke-width:1.5;stroke-linejoin:round;stroke-miterlimit:10;stroke-dasharray:none;stroke-opacity:1"
       id="path1"
       r="12.740543"
       cy="56.296883"
       cx="66.966309" />
    <g
       id="g3"
       style="fill:#0e97d3;fill-opacity:1;stroke:#0e97d3;stroke-opacity:1">
      <g
         id="g2"
         style="fill:#0e97d3;fill-opacity:1;stroke:#0e97d3;stroke-opacity:1">
        <path
           style="fill:#0e97d3;stroke:#0e97d3;stroke-width:0.264583px;stroke-linecap:butt;stroke-linejoin:miter;stroke-opacity:1;fill-opacity:1"
           d="m 59.246665,46.098172 c -0.06276,2.38493 0.125522,3.985344 0.50209,3.985344 0.376568,0 3.263588,0.06276 3.263588,0.06276 0,0 2.824258,0.878658 2.384928,1.882839 -0.439328,1.004181 -1.506271,2.196645 -2.259407,2.133883 -0.753134,-0.06276 -3.451871,0.753136 -3.702915,1.129705 -0.251045,0.376568 -0.502092,1.380746 -0.251045,1.694553 0.251045,0.313806 1.06694,1.631794 1.06694,1.882841 0,0.251044 -0.627612,1.9456 -0.878657,2.322166 -0.251045,0.376568 -1.443508,2.322168 -1.443508,2.322168 L 57.175542,63.891"
           id="path7"
           sodipodi:nodetypes="cscsssssscc" />
      </g>
      <path
         style="fill:#0e97d3;fill-opacity:1;stroke:#0e97d3;stroke-width:0.19;stroke-linejoin:round;stroke-miterlimit:10;stroke-dasharray:none;stroke-opacity:1"
         d="m 57.368928,63.963077 c -1.315338,-1.773934 -2.151391,-3.935596 -2.400258,-6.205989 -0.07482,-0.68254 -0.07482,-1.907608 0,-2.590146 0.278053,-2.536659 1.245351,-4.830313 2.872684,-6.81171 0.159692,-0.194437 0.548653,-0.608831 0.864357,-0.920874 l 0.57401,-0.567358 0.04065,0.757284 c 0.06137,1.143615 0.159295,1.760125 0.333792,2.101548 0.149123,0.291785 0.02915,0.273444 2.065821,0.315826 l 1.802353,0.03751 0.403923,0.155615 c 1.154502,0.444788 1.879864,0.93472 2.007053,1.355632 0.03597,0.119034 0.0307,0.152978 -0.05466,0.352098 -0.236292,0.55124 -0.943545,1.43465 -1.416451,1.769235 -0.345943,0.244764 -0.516966,0.303908 -0.942261,0.325861 -0.632565,0.03265 -1.589004,0.248995 -2.572616,0.581922 -0.714898,0.241976 -1.1304,0.431532 -1.325818,0.604852 -0.296794,0.263239 -0.573834,1.340788 -0.46115,1.793651 0.02444,0.09821 0.129973,0.292344 0.269226,0.495261 0.476538,0.694385 0.94552,1.538597 0.94552,1.702023 0,0.182019 -0.53102,1.640577 -0.765503,2.10261 -0.04658,0.09178 -0.329902,0.557344 -0.629608,1.034594 -0.299706,0.477245 -0.655005,1.044621 -0.789553,1.260829 -0.231012,0.371224 -0.255689,0.398642 -0.443271,0.492528 l -0.198643,0.09942 z"
         id="path8" />
    </g>
    <g
       id="g1"
       style="fill:#0e97d3;stroke:#0e97d3;stroke-opacity:1;fill-opacity:1">
      <path
         style="fill:#0e97d3;fill-opacity:1;stroke:#0e97d3;stroke-width:0.264583px;stroke-linecap:butt;stroke-linejoin:miter;stroke-opacity:1"
         d="m 73.358385,45.444034 -1.065094,2.48522 c 0,0 0.266274,2.5296 0.48817,2.973388 0.221893,0.443791 1.686398,1.33137 1.065093,2.440842 -0.621305,1.109475 -3.994105,2.396463 -3.994105,2.396463 0,0 0.08876,1.908294 -0.08876,2.751495 -0.177517,0.843198 -0.798822,4.038484 -0.798822,4.038484 0,0 -0.133136,0.887579 -0.04438,1.198231 0.08876,0.310653 0.976337,1.020715 0.976337,1.020715 0,0 1.819537,-0.04438 2.041432,0.04438 0.221896,0.08876 2.263325,1.065093 2.263325,1.065093 l 1.242611,-0.488167 c 0,0 2.840251,-3.505935 2.929011,-3.727831 0.08876,-0.221895 1.065094,-3.195283 1.153851,-3.550316 0.08876,-0.355031 0.177517,-3.150905 0.221895,-3.461557 0.04438,-0.310653 -0.665684,-2.707114 -0.665684,-2.707114 L 77.618764,49.526896 76.287396,47.751737 75.266681,46.42037 Z"
         id="path9" />
    </g>
  </g>
</svg>
